<?xml version="1.0" standalone="no"?>
<!DOCTYPE svg PUBLIC "-//W3C//DTD SVG 20010904//EN"
 "http://www.w3.org/TR/2001/REC-SVG-20010904/DTD/svg10.dtd">
<svg version="1.0" xmlns="http://www.w3.org/2000/svg"
 width="512.000000pt" height="512.000000pt" viewBox="0 0 512.000000 512.000000"
 preserveAspectRatio="xMidYMid meet">
<metadata>
Created by potrace 1.14, written by Peter Selinger 2001-2017
</metadata>
<g transform="translate(0.000000,512.000000) scale(0.100000,-0.100000)"
fill="#000000" stroke="none">
<path d="M2500 5110 c11 -7 8 -10 -15 -11 -16 -1 -34 -1 -38 0 -5 1 -6 -3 -2
-9 4 -6 -6 -10 -24 -10 -16 0 -33 -4 -36 -10 -3 -5 -15 -10 -26 -10 -10 0 -19
-4 -19 -8 0 -5 -6 -9 -12 -10 -18 -1 -39 -7 -68 -19 -14 -6 -29 -8 -34 -5 -5
3 -6 0 -2 -6 5 -8 -2 -12 -18 -12 -14 0 -26 -4 -26 -10 0 -5 -10 -10 -23 -10
-13 0 -29 -6 -36 -12 -11 -11 -12 -10 -6 1 5 9 -1 7 -19 -4 -14 -10 -26 -13
-26 -9 0 5 -4 3 -8 -3 -5 -7 -20 -14 -34 -15 -15 -1 -24 -6 -22 -10 5 -7 -36
-13 -59 -9 -5 1 -6 -3 -2 -9 4 -6 -6 -10 -25 -10 -18 0 -29 -4 -25 -10 3 -6
-5 -10 -18 -10 -14 0 -37 -7 -53 -14 -15 -8 -32 -12 -37 -9 -6 3 -7 1 -3 -5 6
-11 -28 -18 -57 -13 -5 1 -6 -3 -2 -9 5 -9 -15 -15 -37 -11 -5 0 -8 -3 -8 -7
0 -5 -6 -9 -12 -9 -21 -1 -43 -8 -49 -15 -3 -5 -17 -9 -31 -10 -15 -1 -24 -6
-22 -10 5 -7 -36 -13 -59 -9 -5 1 -6 -3 -2 -9 3 -5 0 -10 -8 -10 -8 0 -32 -8
-53 -17 -22 -9 -52 -18 -69 -20 -16 -2 -31 -8 -33 -13 -2 -6 -12 -10 -23 -10
-10 0 -19 -5 -19 -11 0 -5 -4 -8 -8 -5 -5 3 -21 -2 -36 -10 -16 -7 -39 -14
-52 -14 -13 0 -24 -4 -24 -10 0 -5 -10 -10 -23 -10 -13 0 -27 -4 -33 -10 -5
-5 -22 -11 -36 -12 -15 -1 -24 -6 -22 -10 3 -4 -3 -8 -13 -8 -11 0 -23 -4 -29
-10 -5 -5 -22 -11 -37 -12 -15 -1 -27 -6 -27 -10 0 -4 -11 -8 -24 -8 -14 0
-28 -4 -31 -10 -3 -5 -15 -10 -26 -10 -10 0 -27 -4 -37 -9 -73 -37 -102 -49
-97 -42 3 5 -6 4 -20 -2 -14 -7 -25 -15 -25 -19 0 -5 -19 -8 -42 -8 -32 0 -39
-3 -28 -10 11 -7 7 -10 -17 -10 -18 0 -33 -4 -33 -10 0 -5 -13 -10 -30 -10
-16 0 -30 -4 -30 -10 0 -5 -13 -10 -30 -10 -16 0 -30 -4 -30 -10 0 -5 -9 -10
-19 -10 -11 0 -21 -4 -23 -10 -1 -5 -17 -10 -35 -12 -17 -1 -29 -6 -27 -10 3
-4 -4 -8 -15 -8 -11 0 -23 -4 -26 -10 -3 -5 -19 -10 -35 -10 -16 0 -32 -4 -35
-10 -3 -5 -15 -10 -26 -10 -14 0 -18 -4 -13 -12 6 -10 5 -10 -7 -1 -16 13 -17
12 -20 -29 -3 -36 5 -117 11 -113 4 2 7 -2 7 -10 0 -8 -3 -12 -7 -10 -3 2 -7
-6 -7 -18 -2 -15 0 -18 6 -8 5 8 9 -17 10 -60 1 -40 6 -78 11 -84 6 -7 5 -16
-3 -25 -6 -7 -7 -10 -2 -7 9 5 17 -54 18 -140 0 -18 4 -30 10 -26 5 3 4 -4 -2
-15 -14 -25 -14 -43 -1 -22 7 11 10 -6 11 -55 1 -38 2 -80 2 -92 1 -13 5 -23
9 -23 4 0 7 -12 7 -27 -5 -80 2 -154 12 -147 8 4 8 1 1 -13 -7 -12 -7 -25 -1
-34 5 -7 9 -36 9 -62 0 -27 5 -58 11 -69 6 -11 7 -18 2 -15 -5 3 -10 -4 -10
-16 -2 -15 0 -18 6 -8 5 8 9 -12 10 -49 1 -34 6 -71 12 -82 8 -15 8 -19 0 -14
-15 10 -14 -7 2 -23 10 -11 9 -12 -3 -6 -12 7 -13 6 -3 -6 7 -8 12 -35 12 -60
-1 -53 3 -71 16 -81 6 -5 5 -8 -2 -8 -7 0 -13 -5 -13 -11 0 -5 6 -7 13 -3 10
6 10 4 0 -7 -7 -7 -13 -18 -13 -23 0 -6 5 -4 11 4 8 12 10 12 8 -5 -4 -60 2
-146 11 -140 7 4 7 -3 0 -19 -5 -14 -6 -26 -1 -26 7 0 14 -70 13 -132 -1 -10
3 -20 9 -23 5 -4 9 -12 9 -18 0 -8 -3 -7 -9 2 -7 10 -9 7 -8 -12 1 -14 5 -23
10 -20 6 4 12 -100 8 -136 -2 -7 2 -10 9 -6 9 6 9 2 1 -14 -7 -12 -8 -27 -4
-34 10 -16 13 -33 14 -94 1 -29 5 -53 11 -53 5 0 6 -6 1 -13 -11 -18 -13 -38
-2 -31 8 5 14 -64 10 -126 -2 -20 0 -22 8 -10 14 20 14 4 0 -22 -6 -11 -7 -18
-1 -14 5 3 10 -6 10 -22 0 -76 5 -141 12 -137 4 2 7 -2 7 -10 0 -8 -5 -11 -11
-8 -7 4 -7 2 0 -8 7 -8 12 -45 13 -83 0 -38 6 -74 11 -81 8 -9 8 -15 0 -20 -7
-5 -8 -11 -1 -19 5 -6 11 -42 12 -79 1 -37 6 -67 12 -67 5 0 3 -8 -4 -17 -10
-11 -10 -14 -2 -9 10 5 13 -7 14 -51 1 -32 1 -62 0 -67 -3 -13 20 -36 30 -30
5 3 9 0 9 -5 0 -6 9 -11 21 -11 11 0 17 -4 14 -10 -3 -5 3 -10 15 -10 12 0 18
-4 15 -10 -3 -5 3 -10 14 -10 12 0 21 -4 21 -10 0 -5 3 -9 8 -9 19 3 33 -2 27
-11 -3 -6 1 -11 9 -11 32 -3 36 -4 57 -22 11 -10 29 -19 39 -20 10 -1 17 -4
15 -7 -2 -4 11 -13 30 -20 19 -8 35 -17 35 -22 0 -4 9 -8 21 -8 11 0 17 -5 14
-10 -3 -6 3 -10 15 -10 13 0 19 -4 14 -12 -4 -6 -3 -8 3 -5 6 4 19 0 29 -8 10
-8 27 -15 37 -15 10 0 15 -4 12 -10 -3 -5 2 -10 12 -10 23 -1 55 -25 45 -34
-4 -4 -2 -7 3 -6 22 5 46 0 41 -8 -3 -5 1 -9 9 -10 8 -1 22 -3 30 -4 8 -1 13
-4 10 -6 -7 -8 28 -31 48 -32 9 0 17 -4 17 -9 0 -10 60 -37 73 -33 5 1 6 -2 2
-8 -3 -5 1 -10 9 -10 9 0 16 -4 16 -10 0 -5 12 -10 26 -10 14 0 23 -4 19 -10
-3 -5 3 -10 15 -10 12 0 18 -5 15 -10 -3 -6 2 -10 12 -10 10 0 29 -9 43 -20
14 -11 32 -20 41 -20 9 0 24 -9 34 -20 10 -11 21 -17 26 -15 4 3 14 -2 22 -10
9 -8 21 -15 27 -15 6 0 8 -5 4 -12 -4 -6 -3 -8 4 -4 6 3 18 -1 26 -10 9 -8 16
-10 16 -4 0 6 10 2 22 -10 12 -11 27 -20 34 -20 6 0 17 -7 24 -15 7 -8 16 -13
20 -10 5 3 10 1 12 -4 1 -5 10 -11 18 -13 8 -2 23 -11 34 -20 11 -10 26 -18
33 -18 7 0 13 -4 13 -10 0 -5 9 -10 20 -10 11 0 20 -4 20 -10 0 -5 9 -10 20
-10 11 0 20 -4 20 -10 0 -5 7 -10 16 -10 8 0 13 -4 10 -8 -3 -5 1 -9 9 -10 8
-1 22 -3 30 -4 8 -1 12 -5 9 -10 -3 -4 2 -8 10 -8 9 0 16 -3 16 -8 0 -7 65
-39 65 -31 0 2 11 -6 25 -19 22 -20 40 -27 63 -23 5 1 6 -3 2 -9 -3 -5 -1 -10
5 -10 6 0 18 -7 27 -15 8 -8 19 -13 24 -10 5 4 9 3 9 -2 0 -9 48 -33 68 -33 7
0 10 -5 7 -10 -5 -9 16 -15 38 -11 5 1 6 -3 2 -9 -3 -5 1 -10 9 -10 9 0 16 -4
16 -10 0 -5 9 -10 21 -10 11 0 17 -5 14 -10 -4 -6 5 -10 20 -10 15 0 24 -4 20
-10 -3 -6 3 -10 15 -10 12 0 19 -4 16 -8 -2 -4 6 -8 19 -8 13 0 21 4 19 8 -3
4 7 8 21 8 15 0 24 4 20 10 -3 5 -1 11 4 11 6 1 16 2 22 3 6 0 17 9 24 19 10
13 14 15 18 5 4 -10 6 -10 6 0 1 6 10 12 22 12 11 0 17 5 14 10 -3 6 2 10 13
10 10 0 28 9 40 20 12 11 26 20 32 20 6 0 18 7 27 15 8 8 19 13 24 10 5 -4 9
-1 9 4 0 6 7 11 15 11 9 0 25 9 37 20 12 11 29 20 37 20 9 0 27 9 41 20 14 11
33 20 43 20 10 0 15 4 12 10 -3 5 1 10 10 10 9 0 23 7 32 15 8 8 19 12 25 9 7
-4 8 -2 4 4 -4 7 -1 12 8 12 9 0 16 4 16 8 0 4 10 9 22 9 13 1 28 10 35 19 7
10 13 14 13 10 0 -4 13 2 29 13 16 12 37 21 46 21 9 0 13 5 10 10 -5 9 16 15
38 11 5 -1 6 3 2 9 -5 9 15 15 38 11 5 -1 6 2 3 7 -3 5 10 15 29 22 19 7 32
17 29 22 -3 4 7 8 21 8 15 0 24 4 20 10 -4 6 5 10 20 10 15 0 24 4 20 10 -4 6
6 10 22 10 22 0 25 2 13 10 -12 8 -11 10 8 10 12 0 22 5 22 10 0 6 9 10 20 10
11 0 20 5 20 10 0 6 10 10 23 10 18 0 19 2 7 10 -11 7 -7 10 18 10 20 0 31 4
27 10 -3 6 4 10 17 10 13 0 30 9 38 20 8 11 22 20 32 20 10 0 18 5 18 12 0 6
3 8 7 5 3 -4 15 1 26 10 10 10 21 17 23 16 11 -7 24 -2 19 8 -4 6 -1 10 6 8 8
-1 21 -1 29 0 13 1 13 2 0 11 -12 8 -11 10 7 10 12 0 24 6 26 13 4 9 6 8 6 -2
1 -10 7 -7 20 8 11 13 26 24 33 25 7 1 23 7 34 14 12 6 25 8 29 4 5 -4 5 -1 1
6 -6 10 7 18 17 10 2 -2 11 5 21 15 10 9 22 14 28 11 7 -4 8 -2 4 4 -4 7 -1
12 8 12 9 0 16 5 16 10 0 6 7 10 15 10 15 0 82 34 99 51 6 5 18 9 29 9 10 0
15 5 12 10 -5 9 16 15 38 11 5 -1 6 3 2 9 -3 5 1 10 9 10 9 0 16 5 16 11 0 5
3 8 8 6 10 -7 73 29 65 37 -6 5 20 10 40 7 4 0 7 4 7 9 0 6 6 10 13 10 7 0 22
8 33 18 10 10 26 21 35 24 11 4 18 22 21 50 3 24 8 52 12 63 6 16 6 17 -3 5
-6 -8 -11 -10 -11 -5 0 6 4 15 10 21 5 5 10 42 11 81 1 40 5 70 10 68 9 -6 6
22 -4 31 -4 4 -7 12 -7 18 0 6 5 4 10 -4 7 -11 10 -3 11 30 1 25 1 51 0 58 -1
8 3 19 9 27 8 9 8 15 0 20 -5 3 -10 12 -10 18 0 7 4 6 10 -3 7 -10 10 5 10 53
0 52 3 66 13 61 10 -6 10 -4 0 7 -14 14 -18 53 -5 46 4 -3 8 20 10 51 2 31 8
60 15 64 7 4 7 8 2 8 -6 0 -11 9 -12 20 -1 13 2 18 10 13 7 -4 5 2 -3 12 -9
11 -10 16 -3 11 9 -5 13 0 12 16 -2 74 4 130 12 117 5 -8 9 -9 9 -3 0 5 -5 15
-11 21 -8 8 -8 13 0 17 6 4 11 32 11 62 0 30 4 53 8 50 5 -3 9 1 9 9 0 8 -4
12 -9 9 -4 -3 -8 0 -8 5 0 6 5 11 10 11 6 0 10 5 10 11 0 5 -4 7 -10 4 -5 -3
-10 -1 -10 4 0 6 4 11 8 11 5 0 10 23 11 52 1 29 7 56 14 60 9 6 9 8 0 8 -7 0
-13 7 -13 15 0 8 5 15 11 15 8 0 7 6 -2 17 -8 9 -9 14 -3 10 8 -4 12 9 14 41
3 76 6 96 14 113 4 9 6 20 5 25 -5 27 2 104 9 100 5 -3 9 1 9 9 0 8 -4 12 -9
9 -4 -3 -8 0 -8 5 0 6 4 11 9 11 4 0 8 8 8 18 0 70 4 112 11 108 4 -2 8 4 8
14 0 10 -3 17 -6 15 -3 -2 -7 6 -7 18 -2 17 0 18 7 7 8 -13 10 5 11 95 0 10 5
25 11 32 7 9 7 17 -1 26 -6 9 -7 17 -1 23 5 5 10 35 11 66 1 32 5 55 9 53 4
-2 7 2 7 10 0 8 -3 12 -7 10 -4 -2 -7 2 -7 10 0 8 4 12 8 9 5 -2 8 6 7 18 -3
62 3 119 11 114 10 -7 9 13 -2 31 -4 6 -3 14 3 18 5 3 10 32 10 64 0 31 5 62
11 68 8 8 8 13 0 17 -6 4 -11 13 -11 19 0 7 4 6 11 -3 8 -12 10 -10 8 10 -1
14 0 50 1 80 1 41 4 50 10 35 7 -16 9 -17 9 -3 1 9 -3 20 -9 23 -5 3 -10 12
-10 18 0 8 3 8 9 -2 5 -8 9 15 10 60 1 40 6 78 11 83 6 6 10 15 10 21 0 5 -5
3 -10 -5 -6 -9 -10 -10 -10 -3 0 6 5 15 10 18 6 4 10 14 9 23 -5 52 2 113 12
106 7 -4 7 1 -1 16 -7 12 -8 20 -3 17 6 -4 11 18 12 50 1 31 7 64 13 72 7 9 9
13 4 9 -4 -4 -17 2 -29 13 -11 10 -31 19 -44 19 -13 0 -23 4 -23 9 0 5 -8 8
-17 7 -10 -2 -33 5 -51 15 -19 9 -43 16 -53 14 -11 -2 -17 0 -14 6 6 9 -12 13
-50 10 -17 -2 -17 0 -5 8 12 9 10 11 -10 12 -14 1 -28 1 -32 0 -5 0 -8 3 -8 9
0 5 -16 10 -36 10 -21 0 -33 4 -29 10 4 6 -5 10 -20 10 -14 0 -24 4 -21 8 2 4
-7 9 -21 10 -14 1 -31 6 -38 12 -6 5 -25 10 -42 12 -18 1 -29 6 -27 10 5 8
-10 11 -48 11 -10 0 -15 4 -12 8 4 8 -35 14 -59 10 -5 -1 -6 3 -2 9 4 6 -5 10
-20 10 -17 0 -24 4 -19 12 5 7 2 9 -8 5 -9 -3 -27 1 -42 8 -14 8 -26 11 -26 8
0 -3 -12 2 -26 12 -15 9 -23 12 -19 5 5 -8 2 -9 -11 -2 -36 19 -69 31 -89 34
-11 2 -26 8 -33 15 -7 6 -21 10 -32 8 -13 -3 -18 0 -14 7 5 7 2 9 -8 5 -9 -3
-24 1 -35 8 -10 8 -28 15 -41 15 -15 0 -21 4 -16 12 5 7 2 9 -8 5 -9 -3 -28 1
-43 9 -15 8 -36 14 -47 14 -10 0 -17 4 -14 8 2 4 -7 9 -22 10 -14 1 -29 7 -33
13 -4 8 -8 7 -12 -2 -4 -10 -6 -10 -6 -1 -1 6 -10 12 -20 12 -11 0 -23 5 -26
10 -4 6 -12 10 -18 9 -28 -3 -48 2 -42 11 3 6 -4 10 -17 10 -13 0 -30 6 -37
13 -11 10 -12 9 -6 -2 5 -9 0 -8 -17 3 -14 9 -28 13 -31 9 -4 -3 -7 -1 -7 5 0
7 -3 11 -7 11 -25 -4 -53 2 -48 11 4 6 -7 10 -25 10 -22 0 -29 4 -24 13 5 7 0
6 -11 -3 -11 -9 -16 -10 -11 -2 5 8 -1 12 -19 12 -17 0 -24 4 -19 12 4 7 3 8
-4 4 -7 -4 -26 0 -44 8 -18 9 -45 17 -60 18 -15 1 -24 6 -22 10 5 7 -36 13
-59 9 -5 -1 -6 3 -2 9 4 6 -5 10 -20 10 -14 0 -24 4 -21 8 5 9 -1 10 -49 13
-13 1 -22 5 -19 10 3 5 -12 9 -33 9 -28 0 -34 3 -23 10 11 7 7 10 -17 10 -18
0 -33 4 -33 8 0 5 -15 9 -32 10 -18 0 -34 6 -36 11 -2 6 -12 11 -23 11 -10 0
-19 4 -19 8 0 4 -12 9 -27 10 -16 1 -43 9 -61 18 -18 8 -37 12 -44 8 -7 -4 -8
-3 -4 4 7 12 -11 17 -43 13 -7 -2 -11 1 -8 6 3 4 -11 9 -31 10 -26 2 -32 -1
-22 -7z"/>
</g>
</svg>
